<svg width="23" height="13" viewBox="0 0 23 13" fill="none" xmlns="http://www.w3.org/2000/svg">
<path fill-rule="evenodd" clip-rule="evenodd" d="M0 1.33333C0 0.596954 0.596954 0 1.33333 0H21.3333C22.0697 0 22.6667 0.596954 22.6667 1.33333C22.6667 2.06971 22.0697 2.66667 21.3333 2.66667H1.33333C0.596954 2.66667 0 2.06971 0 1.33333Z" fill="#333333"/>
<path fill-rule="evenodd" clip-rule="evenodd" d="M0 6.33333C0 5.59695 0.596954 5 1.33333 5H21.3333C22.0697 5 22.6667 5.59695 22.6667 6.33333C22.6667 7.06971 22.0697 7.66667 21.3333 7.66667H1.33333C0.596954 7.66667 0 7.06971 0 6.33333Z" fill="#333333"/>
<path fill-rule="evenodd" clip-rule="evenodd" d="M0 11.3333C0 10.597 0.596954 10 1.33333 10H21.3333C22.0697 10 22.6667 10.597 22.6667 11.3333C22.6667 12.0697 22.0697 12.6667 21.3333 12.6667H1.33333C0.596954 12.6667 0 12.0697 0 11.3333Z" fill="#333333"/>
</svg>
