<svg width="16" height="14" viewBox="0 0 16 14" fill="none" xmlns="http://www.w3.org/2000/svg">
<path id="Vector" d="M11.4833 0C10.1712 0 9.14549 1.25921 8.21691 2.85896C6.94099 0.788584 5.87418 0 4.59755 0C1.99468 0 0 4.31779 0 8.88671C0 11.7457 1.08524 13.5496 2.90342 13.5496C4.21194 13.5496 5.15329 12.7637 6.82686 9.03575C6.82686 9.03575 7.52437 7.46671 8.00354 6.38546C8.17225 6.73142 8.34875 7.10358 8.53518 7.50375L9.31987 9.1857C10.8481 12.4448 11.7002 13.5496 13.2426 13.5496C15.0147 13.5496 16 11.7213 16 8.8027C16 4.0179 13.9607 0 11.4833 0ZM5.55024 8.02676C4.19422 10.7367 3.72497 11.3446 2.97005 11.3446C2.19245 11.3446 1.73029 10.4747 1.73029 8.92374C1.73029 5.60681 3.02818 2.2149 4.57558 2.2149C5.41343 2.2149 6.11377 2.83096 7.18625 4.78751C6.16764 6.77839 5.55024 8.02676 5.55024 8.02676ZM10.6709 7.68621L9.73241 5.69082C9.49664 5.20013 9.25274 4.71585 9.00089 4.2383C9.84654 2.57532 10.5433 1.74609 11.3734 1.74609C13.0959 1.74609 14.4746 4.97992 14.4746 8.95084C14.4746 10.4648 14.0854 11.3437 13.2795 11.3437C12.5068 11.3437 12.1382 10.6942 10.6709 7.68621Z" fill="#0065FB"/>
</svg>
